<svg width="24" height="24" viewBox="0 0 24 24" fill="none" xmlns="http://www.w3.org/2000/svg">
<g clip-path="url(#clip0_425_3346)">
<path d="M24 4.36755C23.0801 4.7691 22.0916 5.04048 21.0541 5.16257C22.1132 4.53771 22.9264 3.54822 23.3093 2.36925C22.3025 2.95737 21.201 3.37174 20.0523 3.59446C19.1167 2.61323 17.7838 2 16.3085 2C13.4759 2 11.1793 4.26065 11.1793 7.04888C11.1793 7.44466 11.2247 7.82996 11.3121 8.19959C7.04941 7.98896 3.27012 5.97893 0.740332 2.92422C0.298926 3.66992 0.0459962 4.53732 0.0459962 5.4625C0.0459962 7.21423 0.951563 8.75956 2.32773 9.66504C1.51323 9.63993 0.716649 9.42337 0.00449216 9.03344C0.00419927 9.05459 0.00419927 9.07574 0.00419927 9.09699C0.00419927 11.5433 1.77217 13.584 4.11846 14.0478C3.36317 14.25 2.57093 14.2796 1.80225 14.1343C2.45488 16.1402 4.34912 17.5999 6.59346 17.6408C4.83809 18.9949 2.62646 19.8021 0.223535 19.8021C-0.190527 19.8021 -0.59873 19.7782 -1 19.7316C1.26982 21.1641 3.96582 22 6.8623 22C16.2966 22 21.4555 14.3064 21.4555 7.63443C21.4555 7.41544 21.4506 7.1977 21.4406 6.98121C22.4448 6.26664 23.3114 5.38157 24 4.36755Z" fill="white"/>
</g>
<defs>
<clipPath id="clip0_425_3346">
<rect width="24" height="24" fill="white"/>
</clipPath>
</defs>
</svg>
