<svg width="30" height="30" viewBox="0 0 30 30" fill="none" xmlns="http://www.w3.org/2000/svg">
<path d="M3.75002 5.62877C3.75003 5.2849 3.84461 4.94766 4.0234 4.65393C4.2022 4.3602 4.45833 4.12129 4.76377 3.96334C5.06922 3.80539 5.41222 3.73448 5.75526 3.75837C6.0983 3.78225 6.42816 3.90001 6.70877 4.09877L19.8338 13.4044C20.0776 13.5768 20.2767 13.8049 20.4145 14.0698C20.5524 14.3347 20.6249 14.6287 20.6262 14.9273C20.6275 15.2259 20.5575 15.5205 20.4219 15.7865C20.2863 16.0526 20.0892 16.2824 19.8469 16.4569L6.72189 25.9013C6.44189 26.1032 6.11157 26.224 5.76733 26.2502C5.42308 26.2764 5.07829 26.207 4.77094 26.0498C4.4636 25.8925 4.20564 25.6534 4.0255 25.3589C3.84536 25.0644 3.75003 24.7259 3.75002 24.3806V5.62877ZM26.25 4.68752C26.25 4.43888 26.1512 4.20042 25.9754 4.02461C25.7996 3.84879 25.5612 3.75002 25.3125 3.75002C25.0639 3.75002 24.8254 3.84879 24.6496 4.02461C24.4738 4.20042 24.375 4.43888 24.375 4.68752V25.3125C24.375 25.5612 24.4738 25.7996 24.6496 25.9754C24.8254 26.1512 25.0639 26.25 25.3125 26.25C25.5612 26.25 25.7996 26.1512 25.9754 25.9754C26.1512 25.7996 26.25 25.5612 26.25 25.3125V4.68752Z" fill="white"/>
</svg>
