<svg width="78" height="32" viewBox="0 0 78 32" fill="none" xmlns="http://www.w3.org/2000/svg">
<g clip-path="url(#clip0_425_2804)">
<path d="M15.7405 19.6757C17.9138 19.6757 19.6756 17.9139 19.6756 15.7406C19.6756 13.5673 17.9138 11.8055 15.7405 11.8055C13.5672 11.8055 11.8054 13.5673 11.8054 15.7406C11.8054 17.9139 13.5672 19.6757 15.7405 19.6757Z" stroke="white" stroke-width="2.94388" stroke-linecap="round" stroke-linejoin="round"/>
<path d="M25.447 19.6761C25.2723 20.0717 25.2203 20.5106 25.2974 20.9361C25.3746 21.3616 25.5774 21.7542 25.8798 22.0634L25.9585 22.1421C26.2024 22.3857 26.3959 22.6751 26.528 22.9935C26.66 23.312 26.7279 23.6534 26.7279 23.9982C26.7279 24.3429 26.66 24.6843 26.528 25.0028C26.3959 25.3212 26.2024 25.6106 25.9585 25.8542C25.7149 26.0981 25.4255 26.2916 25.1071 26.4237C24.7886 26.5557 24.4472 26.6236 24.1025 26.6236C23.7577 26.6236 23.4163 26.5557 23.0978 26.4237C22.7794 26.2916 22.49 26.0981 22.2464 25.8542L22.1677 25.7755C21.8585 25.4731 21.4659 25.2703 21.0404 25.1931C20.6149 25.116 20.176 25.168 19.7804 25.3427C19.3924 25.5089 19.0615 25.785 18.8285 26.1369C18.5954 26.4889 18.4704 26.9012 18.4687 27.3233V27.5463C18.4687 28.2421 18.1923 28.9094 17.7003 29.4014C17.2083 29.8933 16.541 30.1697 15.8453 30.1697C15.1495 30.1697 14.4822 29.8933 13.9902 29.4014C13.4982 28.9094 13.2218 28.2421 13.2218 27.5463V27.4283C13.2117 26.9941 13.0712 26.573 12.8185 26.2198C12.5659 25.8666 12.2128 25.5975 11.8052 25.4476C11.4096 25.273 10.9707 25.2209 10.5452 25.2981C10.1197 25.3752 9.72703 25.5781 9.41789 25.8805L9.33919 25.9592C9.09554 26.2031 8.80621 26.3966 8.48773 26.5286C8.16926 26.6606 7.82788 26.7286 7.48312 26.7286C7.13837 26.7286 6.79699 26.6606 6.47851 26.5286C6.16004 26.3966 5.8707 26.2031 5.62706 25.9592C5.38314 25.7155 5.18964 25.4262 5.05762 25.1077C4.9256 24.7892 4.85765 24.4479 4.85765 24.1031C4.85765 23.7583 4.9256 23.417 5.05762 23.0985C5.18964 22.78 5.38314 22.4907 5.62706 22.247L5.70576 22.1683C6.00816 21.8592 6.21101 21.4665 6.28816 21.041C6.36532 20.6155 6.31323 20.1767 6.13862 19.781C5.97235 19.3931 5.69626 19.0622 5.34434 18.8291C4.99242 18.5961 4.58004 18.471 4.15795 18.4693H3.93496C3.23918 18.4693 2.57191 18.1929 2.07992 17.7009C1.58794 17.2089 1.31154 16.5417 1.31154 15.8459C1.31154 15.1501 1.58794 14.4829 2.07992 13.9909C2.57191 13.4989 3.23918 13.2225 3.93496 13.2225H4.05301C4.48718 13.2123 4.90825 13.0718 5.26148 12.8191C5.61472 12.5665 5.88378 12.2134 6.03369 11.8058C6.2083 11.4102 6.26038 10.9713 6.18323 10.5458C6.10608 10.1203 5.90322 9.72768 5.60082 9.41853L5.52212 9.33983C5.27821 9.09619 5.08471 8.80685 4.95268 8.48838C4.82066 8.1699 4.75271 7.82852 4.75271 7.48377C4.75271 7.13901 4.82066 6.79763 4.95268 6.47916C5.08471 6.16068 5.27821 5.87135 5.52212 5.6277C5.76577 5.38379 6.0551 5.19028 6.37358 5.05826C6.69205 4.92624 7.03343 4.85829 7.37819 4.85829C7.72294 4.85829 8.06432 4.92624 8.3828 5.05826C8.70128 5.19028 8.99061 5.38379 9.23425 5.6277L9.31296 5.7064C9.6221 6.0088 10.0147 6.21165 10.4403 6.28881C10.8658 6.36596 11.3046 6.31387 11.7003 6.13927H11.8052C12.1932 5.97299 12.524 5.6969 12.7571 5.34498C12.9902 4.99306 13.1152 4.58068 13.1169 4.15859V3.9356C13.1169 3.23983 13.3933 2.57255 13.8853 2.08057C14.3773 1.58858 15.0445 1.31218 15.7403 1.31218C16.4361 1.31218 17.1034 1.58858 17.5954 2.08057C18.0873 2.57255 18.3637 3.23983 18.3637 3.9356V4.05365C18.3654 4.47574 18.4905 4.88813 18.7235 5.24005C18.9566 5.59196 19.2875 5.86805 19.6754 6.03433C20.0711 6.20894 20.5099 6.26102 20.9355 6.18387C21.361 6.10672 21.7536 5.90386 22.0627 5.60147L22.1414 5.52276C22.3851 5.27885 22.6744 5.08535 22.9929 4.95333C23.3114 4.82131 23.6528 4.75335 23.9975 4.75335C24.3423 4.75335 24.6836 4.82131 25.0021 4.95333C25.3206 5.08535 25.6099 5.27885 25.8536 5.52276C26.0975 5.76641 26.291 6.05574 26.423 6.37422C26.555 6.6927 26.623 7.03407 26.623 7.37883C26.623 7.72359 26.555 8.06496 26.423 8.38344C26.291 8.70192 26.0975 8.99125 25.8536 9.2349L25.7749 9.3136C25.4725 9.62274 25.2696 10.0154 25.1925 10.4409C25.1153 10.8664 25.1674 11.3053 25.342 11.7009V11.8058C25.5083 12.1938 25.7844 12.5247 26.1363 12.7577C26.4882 12.9908 26.9006 13.1159 27.3227 13.1175H27.5457C28.2415 13.1175 28.9087 13.3939 29.4007 13.8859C29.8927 14.3779 30.1691 15.0452 30.1691 15.741C30.1691 16.4367 29.8927 17.104 29.4007 17.596C28.9087 18.088 28.2415 18.3644 27.5457 18.3644H27.4276C27.0055 18.3661 26.5932 18.4911 26.2412 18.7242C25.8893 18.9572 25.6132 19.2881 25.447 19.6761V19.6761Z" stroke="white" stroke-width="2.94388" stroke-linecap="round" stroke-linejoin="round"/>
</g>
<path d="M57.0127 3.93503H53.0776C52.3818 3.93503 51.7145 4.21142 51.2226 4.70341C50.7306 5.19539 50.4542 5.86267 50.4542 6.55844V10.4936M74.0649 10.4936V6.55844C74.0649 5.86267 73.7885 5.19539 73.2965 4.70341C72.8045 4.21142 72.1373 3.93503 71.4415 3.93503H67.5064M67.5064 27.5458H71.4415C72.1373 27.5458 72.8045 27.2694 73.2965 26.7774C73.7885 26.2854 74.0649 25.6181 74.0649 24.9223V20.9872M50.4542 20.9872V24.9223C50.4542 25.6181 50.7306 26.2854 51.2226 26.7774C51.7145 27.2694 52.3818 27.5458 53.0776 27.5458H57.0127" stroke="white" stroke-width="2.94388" stroke-linecap="round" stroke-linejoin="round"/>
<defs>
<clipPath id="clip0_425_2804">
<rect width="31.4014" height="31.4014" fill="white" transform="scale(1.00253)"/>
</clipPath>
</defs>
</svg>
