<svg width="20" height="20" viewBox="0 0 20 20" fill="none" xmlns="http://www.w3.org/2000/svg">
<path d="M11.557 18.103C11.3987 18.3759 11.1716 18.6023 10.8984 18.7597C10.6251 18.9171 10.3153 19 9.99997 19C9.68463 19 9.37482 18.9171 9.10157 18.7597C8.82831 18.6023 8.6012 18.3759 8.44297 18.103M0.999997 6.401C0.999997 4.42065 1.63 2.53032 2.79999 1.00006M18.9999 6.401C18.9999 4.45333 18.3683 2.55819 17.1999 1.00006M15.4 6.401C15.4 4.96858 14.831 3.59483 13.8183 2.58196C12.8056 1.56908 11.4321 1.00006 9.99997 1.00006C8.5678 1.00006 7.1943 1.56908 6.1816 2.58196C5.16891 3.59483 4.59999 4.96858 4.59999 6.401C4.59999 12.7021 1.89999 14.5024 1.89999 14.5024H18.0999C18.0999 14.5024 15.4 12.7021 15.4 6.401Z" stroke="white" stroke-width="2" stroke-linecap="round" stroke-linejoin="round"/>
</svg>
