<svg width="24" height="24" viewBox="0 0 24 24" fill="none" xmlns="http://www.w3.org/2000/svg">
<path d="M17.5 1H6.5C3.46243 1 1 3.46243 1 6.5V17.5C1 20.5376 3.46243 23 6.5 23H17.5C20.5376 23 23 20.5376 23 17.5V6.5C23 3.46243 20.5376 1 17.5 1Z" fill="white"/>
<path d="M16.3997 11.303C16.5354 12.2185 16.3791 13.1535 15.9528 13.9749C15.5266 14.7964 14.8521 15.4626 14.0255 15.8787C13.1988 16.2948 12.262 16.4396 11.3482 16.2926C10.4345 16.1455 9.59041 15.7141 8.936 15.0597C8.28158 14.4053 7.85018 13.5612 7.70315 12.6475C7.55612 11.7337 7.70095 10.7969 8.11703 9.97024C8.53312 9.14357 9.19928 8.46914 10.0208 8.04289C10.8422 7.61665 11.7772 7.46028 12.6927 7.59603C13.6265 7.7345 14.491 8.16964 15.1585 8.83717C15.8261 9.50469 16.2612 10.3692 16.3997 11.303Z" stroke="#0D0C11" stroke-width="2" stroke-linecap="round" stroke-linejoin="round"/>
<path d="M18.05 5.95001H18.061" stroke="#0D0C11" stroke-width="2" stroke-linecap="round" stroke-linejoin="round"/>
</svg>
